<svg width="30" height="30" xmlns="http://www.w3.org/2000/svg" xmlns:xlink="http://www.w3.org/1999/xlink" xml:space="preserve" overflow="hidden"><g transform="translate(-12 -63)"><path d="M14.0522 79.2369 16.08 81.2644 17.625 79.8013 17.625 89.8675 25.4375 89.8706 25.4375 82.0678 28.5625 82.0678 28.5625 89.8719 36.375 89.875 36.375 79.7881 37.9278 81.2569 39.9478 79.2372 27 66.9375ZM35.75 89.25 29.1875 89.2472 29.1875 81.4428 24.8125 81.4428 24.8125 89.2453 18.25 89.2428 18.25 79.2094 27 70.9231 35.75 79.1972ZM16.0919 80.3925 14.9478 79.25 27 67.7988 39.0522 79.25 37.9156 80.385 27 70.0625Z" stroke="#A6A6A6" stroke-width="0.416694" fill="#A6A6A6"/></g></svg>